<svg xmlns="http://www.w3.org/2000/svg" width="2000" height="900" viewBox="0 0 2000 900"><rect width="100%" height="100%" fill="#f5f1e7"/><text x="20" y="42" font-family="sans-serif" font-size="28" fill="#111">Noto Sans CJK KR outline flattening probe (even-odd holes)</text><g transform="translate(0 20) scale(.48)"><g transform="translate(20 920) scale(.42)"><path d="M458,-500 L504.720703,-498.193359 L546.390625,-492.859375 L582.646484,-484.126953 L613.125,-472.125 L637.462891,-456.982422 L647.215576,-448.273682 L655.296875,-438.828125 L661.661377,-428.661865 L666.263672,-417.791016 L669.05835,-406.231689 L670,-394 L669.05835,-381.768311 L666.263672,-370.208984 L661.661377,-359.338135 L655.296875,-349.171875 L647.215576,-339.726318 L637.462891,-331.017578 L613.125,-315.875 L582.646484,-303.873047 L546.390625,-295.140625 L504.720703,-289.806641 L458,-288 L410.992188,-289.806641 L369.1875,-295.140625 L332.914063,-303.873047 L302.5,-315.875 L278.273438,-331.017578 L268.583008,-339.726318 L260.5625,-349.171875 L254.25293,-359.338135 L249.695313,-370.208984 L246.930664,-381.768311 L246,-394 L246.930664,-406.231689 L249.695313,-417.791016 L254.25293,-428.661865 L260.5625,-438.828125 L268.583008,-448.273682 L278.273438,-456.982422 L302.5,-472.125 L332.914063,-484.126953 L369.1875,-492.859375 L410.992188,-498.193359 L458,-500 Z M417,-812 L417,-694 L90,-694 L90,-626 L825,-626 L825,-694 L499,-694 L499,-812 L417,-812 Z M458,-566 L424.518311,-565.254883 L392.740234,-563.039063 L362.72876,-559.381836 L334.546875,-554.3125 L308.257568,-547.860352 L283.923828,-540.054688 L261.608643,-530.924805 L241.375,-520.5 L223.285889,-508.80957 L207.404297,-495.882813 L193.793213,-481.749023 L182.515625,-466.4375 L173.634521,-449.977539 L167.212891,-432.398438 L163.313721,-413.729492 L162,-394 L163.116943,-375.522949 L166.435547,-357.980469 L171.907471,-341.393066 L179.484375,-325.78125 L189.11792,-311.165527 L200.759766,-297.566406 L214.361572,-285.004395 L229.875,-273.5 L247.251709,-263.07373 L266.443359,-253.746094 L287.401611,-245.537598 L310.078125,-238.46875 L360.392578,-227.832031 L417,-222 L417,-96 L50,-96 L50,-28 L870,-28 L870,-96 L499,-96 L499,-222 L555.320313,-227.832031 L605.5,-238.46875 L628.155273,-245.537598 L649.117188,-253.746094 L668.333008,-263.07373 L685.75,-273.5 L701.31543,-285.004395 L714.976563,-297.566406 L726.680664,-311.165527 L736.375,-325.78125 L744.006836,-341.393066 L749.523438,-357.980469 L752.87207,-375.522949 L754,-394 L752.675293,-413.729492 L748.746094,-432.398438 L742.279785,-449.977539 L733.34375,-466.4375 L722.005371,-481.749023 L708.332031,-495.882813 L692.391113,-508.80957 L674.25,-520.5 L653.976074,-530.924805 L631.636719,-540.054688 L607.299316,-547.860352 L581.03125,-554.3125 L552.899902,-559.381836 L522.972656,-563.039063 L491.316895,-565.254883 L458,-566 Z M1047,-770 L1047,-704 L1332,-704 L1332,-699 L1330.220459,-676.890625 L1325.029297,-655.25 L1316.647705,-634.171875 L1305.296875,-613.75 L1291.197998,-594.078125 L1274.572266,-575.25 L1255.640869,-557.359375 L1234.625,-540.5 L1211.74585,-524.765625 L1187.224609,-510.25 L1161.282471,-497.046875 L1134.140625,-485.25 L1106.020264,-474.953125 L1077.142578,-466.25 L1047.72876,-459.234375 L1018,-454 L1050,-388 L1102.074219,-399.355469 L1152.71875,-415.28125 L1201.066406,-435.566406 L1246.25,-460 L1287.402344,-488.371094 L1306.195801,-503.967285 L1323.65625,-520.46875 L1339.675293,-537.849121 L1354.144531,-556.082031 L1366.955566,-575.141113 L1378,-595 L1389.220703,-575.141113 L1402.1875,-556.082031 L1416.794922,-537.849121 L1432.9375,-520.46875 L1450.509766,-503.967285 L1469.40625,-488.371094 L1510.75,-460 L1556.125,-435.566406 L1604.6875,-415.28125 L1655.59375,-399.355469 L1708,-388 L1739,-454 L1709.27124,-459.234375 L1679.857422,-466.25 L1650.979736,-474.953125 L1622.859375,-485.25 L1595.717529,-497.046875 L1569.775391,-510.25 L1545.25415,-524.765625 L1522.375,-540.5 L1501.359131,-557.359375 L1482.427734,-575.25 L1465.802002,-594.078125 L1451.703125,-613.75 L1440.352295,-634.171875 L1431.970703,-655.25 L1426.779541,-676.890625 L1425,-699 L1425,-704 L1709,-704 L1709,-770 L1047,-770 Z M970,-312 L970,-244 L1336,-244 L1336,77 L1418,77 L1418,-244 L1787,-244 L1787,-312 L970,-312 Z" fill="#173f55" fill-rule="evenodd" stroke="#d23b3b" stroke-width="2"/><text x="0" y="150" font-family="sans-serif" font-size="64" fill="#111">호주 · tolerance 1 · 195 vertices</text></g><g transform="translate(920 920) scale(.42)"><path d="M539,-480 L539,-411 L711,-411 L711,79 L793,79 L793,-827 L711,-827 L711,-480 L539,-480 Z M81,-743 L81,-675 L404,-675 L404,-494 L84,-494 L84,-138 L153,-138 L266.890625,-139.3125 L369.625,-144 L467.296875,-153.1875 L566,-168 L559,-237 L464.546875,-222.34375 L371.125,-213.5 L273.390625,-209.15625 L166,-208 L166,-426 L485,-426 L485,-743 L81,-743 Z M1627,-827 L1627,79 L1710,79 L1710,-827 L1627,-827 Z M1208,-749 L1208,-587 L1206.75415,-554.765381 L1203.095703,-522.669922 L1197.143311,-490.876221 L1189.015625,-459.546875 L1178.831299,-428.844482 L1166.708984,-398.931641 L1152.767334,-369.970947 L1137.125,-342.125 L1119.900635,-315.556396 L1101.212891,-290.427734 L1081.18042,-266.901611 L1059.921875,-245.140625 L1037.555908,-225.307373 L1014.201172,-207.564453 L989.976318,-192.074463 L965,-179 L1016,-110 L1054.808594,-132.658203 L1091.53125,-160.578125 L1125.863281,-193.302734 L1157.5,-230.375 L1186.136719,-271.337891 L1211.46875,-315.734375 L1233.191406,-363.107422 L1251,-413 L1268.800781,-365.767578 L1290.46875,-321.078125 L1315.652344,-279.318359 L1344,-240.875 L1375.160156,-206.134766 L1408.78125,-175.484375 L1444.511719,-149.310547 L1482,-128 L1532,-194 L1507.375732,-206.65332 L1483.458984,-221.632813 L1460.371338,-238.780273 L1438.234375,-257.9375 L1417.169678,-278.946289 L1397.298828,-301.648438 L1378.743408,-325.885742 L1361.625,-351.5 L1346.065186,-378.333008 L1332.185547,-406.226563 L1320.107666,-435.022461 L1309.953125,-464.5625 L1301.843506,-494.688477 L1295.900391,-525.242188 L1292.245361,-556.06543 L1291,-587 L1291,-749 L1208,-749 Z M2130,-757 L2105.532959,-755.571777 L2082.060547,-751.339844 L2059.66333,-744.383301 L2038.421875,-734.78125 L2018.416748,-722.612793 L1999.728516,-707.957031 L1982.437744,-690.893066 L1966.625,-671.5 L1952.37085,-649.856934 L1939.755859,-626.042969 L1928.860596,-600.137207 L1919.765625,-572.21875 L1912.551514,-542.366699 L1907.298828,-510.660156 L1904.088135,-477.178223 L1903,-442 L1904.088135,-406.645752 L1907.298828,-373.009766 L1912.551514,-341.169678 L1919.765625,-311.203125 L1928.860596,-283.187744 L1939.755859,-257.201172 L1952.37085,-233.321045 L1966.625,-211.625 L1982.437744,-192.190674 L1999.728516,-175.095703 L2018.416748,-160.417725 L2038.421875,-148.234375 L2059.66333,-138.623291 L2082.060547,-131.662109 L2105.532959,-127.428467 L2130,-126 L2154.467041,-127.428467 L2177.939453,-131.662109 L2200.33667,-138.623291 L2221.578125,-148.234375 L2241.583252,-160.417725 L2260.271484,-175.095703 L2277.562256,-192.190674 L2293.375,-211.625 L2307.62915,-233.321045 L2320.244141,-257.201172 L2331.139404,-283.187744 L2340.234375,-311.203125 L2347.448486,-341.169678 L2352.701172,-373.009766 L2355.911865,-406.645752 L2357,-442 L2355.911865,-477.178223 L2352.701172,-510.660156 L2347.448486,-542.366699 L2340.234375,-572.21875 L2331.139404,-600.137207 L2320.244141,-626.042969 L2307.62915,-649.856934 L2293.375,-671.5 L2277.562256,-690.893066 L2260.271484,-707.957031 L2241.583252,-722.612793 L2221.578125,-734.78125 L2200.33667,-744.383301 L2177.939453,-751.339844 L2154.467041,-755.571777 L2130,-757 Z M2130,-683 L2146.164063,-681.897461 L2161.625,-678.632813 L2176.335938,-673.270508 L2190.25,-665.875 L2203.320313,-656.510742 L2215.5,-645.242188 L2226.742188,-632.133789 L2237,-617.25 L2246.226563,-600.655273 L2254.375,-582.414063 L2261.398438,-562.59082 L2267.25,-541.25 L2275.25,-494.273438 L2278,-442 L2275.25,-389.396484 L2267.25,-342.171875 L2261.398438,-320.734131 L2254.375,-300.830078 L2246.226563,-282.522705 L2237,-265.875 L2226.742188,-250.949951 L2215.5,-237.810547 L2203.320313,-226.519775 L2190.25,-217.140625 L2176.335938,-209.736084 L2161.625,-204.369141 L2146.164063,-201.102783 L2130,-200 L2114.000732,-201.102783 L2098.662109,-204.369141 L2084.0354,-209.736084 L2070.171875,-217.140625 L2057.122803,-226.519775 L2044.939453,-237.810547 L2033.673096,-250.949951 L2023.375,-265.875 L2014.096436,-282.522705 L2005.888672,-300.830078 L1998.802979,-320.734131 L1992.890625,-342.171875 L1988.202881,-365.080322 L1984.791016,-389.396484 L1982,-442 L1984.791016,-494.273438 L1988.202881,-518.456055 L1992.890625,-541.25 L1998.802979,-562.59082 L2005.888672,-582.414063 L2014.096436,-600.655273 L2023.375,-617.25 L2033.673096,-632.133789 L2044.939453,-645.242188 L2057.122803,-656.510742 L2070.171875,-665.875 L2084.0354,-673.270508 L2098.662109,-678.632813 L2114.000732,-681.897461 L2130,-683 Z M2502,-827 L2502,78 L2585,78 L2585,-396 L2733,-396 L2733,-466 L2585,-466 L2585,-827 L2502,-827 Z" fill="#173f55" fill-rule="evenodd" stroke="#d23b3b" stroke-width="2"/><text x="0" y="150" font-family="sans-serif" font-size="64" fill="#111">러시아 · tolerance 1 · 221 vertices</text></g><g transform="translate(2370 920) scale(.42)"><path d="M458,-500 L546.390625,-492.859375 L613.125,-472.125 L637.462891,-456.982422 L655.296875,-438.828125 L666.263672,-417.791016 L670,-394 L666.263672,-370.208984 L655.296875,-349.171875 L637.462891,-331.017578 L613.125,-315.875 L546.390625,-295.140625 L458,-288 L369.1875,-295.140625 L302.5,-315.875 L278.273438,-331.017578 L260.5625,-349.171875 L249.695313,-370.208984 L246,-394 L249.695313,-417.791016 L260.5625,-438.828125 L278.273438,-456.982422 L302.5,-472.125 L369.1875,-492.859375 L458,-500 Z M417,-812 L417,-694 L90,-694 L90,-626 L825,-626 L825,-694 L499,-694 L499,-812 L417,-812 Z M458,-566 L392.740234,-563.039063 L334.546875,-554.3125 L283.923828,-540.054688 L241.375,-520.5 L207.404297,-495.882813 L182.515625,-466.4375 L167.212891,-432.398438 L162,-394 L166.435547,-357.980469 L179.484375,-325.78125 L200.759766,-297.566406 L229.875,-273.5 L266.443359,-253.746094 L310.078125,-238.46875 L417,-222 L417,-96 L50,-96 L50,-28 L870,-28 L870,-96 L499,-96 L499,-222 L605.5,-238.46875 L649.117188,-253.746094 L685.75,-273.5 L714.976563,-297.566406 L736.375,-325.78125 L749.523438,-357.980469 L754,-394 L748.746094,-432.398438 L733.34375,-466.4375 L708.332031,-495.882813 L674.25,-520.5 L631.636719,-540.054688 L581.03125,-554.3125 L522.972656,-563.039063 L458,-566 Z M1047,-770 L1047,-704 L1332,-704 L1332,-699 L1325.029297,-655.25 L1305.296875,-613.75 L1274.572266,-575.25 L1234.625,-540.5 L1187.224609,-510.25 L1134.140625,-485.25 L1077.142578,-466.25 L1018,-454 L1050,-388 L1152.71875,-415.28125 L1246.25,-460 L1287.402344,-488.371094 L1323.65625,-520.46875 L1354.144531,-556.082031 L1378,-595 L1402.1875,-556.082031 L1432.9375,-520.46875 L1469.40625,-488.371094 L1510.75,-460 L1604.6875,-415.28125 L1708,-388 L1739,-454 L1679.857422,-466.25 L1622.859375,-485.25 L1569.775391,-510.25 L1522.375,-540.5 L1482.427734,-575.25 L1451.703125,-613.75 L1431.970703,-655.25 L1425,-699 L1425,-704 L1709,-704 L1709,-770 L1047,-770 Z M970,-312 L970,-244 L1336,-244 L1336,77 L1418,77 L1418,-244 L1787,-244 L1787,-312 L970,-312 Z" fill="#173f55" fill-rule="evenodd" stroke="#d23b3b" stroke-width="2"/><text x="0" y="150" font-family="sans-serif" font-size="64" fill="#111">호주 · tolerance 4 · 119 vertices</text></g><g transform="translate(3270 920) scale(.42)"><path d="M539,-480 L539,-411 L711,-411 L711,79 L793,79 L793,-827 L711,-827 L711,-480 L539,-480 Z M81,-743 L81,-675 L404,-675 L404,-494 L84,-494 L84,-138 L153,-138 L369.625,-144 L566,-168 L559,-237 L371.125,-213.5 L166,-208 L166,-426 L485,-426 L485,-743 L81,-743 Z M1627,-827 L1627,79 L1710,79 L1710,-827 L1627,-827 Z M1208,-749 L1208,-587 L1203.095703,-522.669922 L1189.015625,-459.546875 L1166.708984,-398.931641 L1137.125,-342.125 L1101.212891,-290.427734 L1059.921875,-245.140625 L1014.201172,-207.564453 L965,-179 L1016,-110 L1091.53125,-160.578125 L1157.5,-230.375 L1211.46875,-315.734375 L1251,-413 L1290.46875,-321.078125 L1344,-240.875 L1408.78125,-175.484375 L1482,-128 L1532,-194 L1483.458984,-221.632813 L1438.234375,-257.9375 L1397.298828,-301.648438 L1361.625,-351.5 L1332.185547,-406.226563 L1309.953125,-464.5625 L1295.900391,-525.242188 L1291,-587 L1291,-749 L1208,-749 Z M2130,-757 L2082.060547,-751.339844 L2038.421875,-734.78125 L1999.728516,-707.957031 L1966.625,-671.5 L1939.755859,-626.042969 L1919.765625,-572.21875 L1907.298828,-510.660156 L1903,-442 L1907.298828,-373.009766 L1919.765625,-311.203125 L1939.755859,-257.201172 L1966.625,-211.625 L1999.728516,-175.095703 L2038.421875,-148.234375 L2082.060547,-131.662109 L2130,-126 L2177.939453,-131.662109 L2221.578125,-148.234375 L2260.271484,-175.095703 L2293.375,-211.625 L2320.244141,-257.201172 L2340.234375,-311.203125 L2352.701172,-373.009766 L2357,-442 L2352.701172,-510.660156 L2340.234375,-572.21875 L2320.244141,-626.042969 L2293.375,-671.5 L2260.271484,-707.957031 L2221.578125,-734.78125 L2177.939453,-751.339844 L2130,-757 Z M2130,-683 L2161.625,-678.632813 L2190.25,-665.875 L2215.5,-645.242188 L2237,-617.25 L2254.375,-582.414063 L2267.25,-541.25 L2278,-442 L2267.25,-342.171875 L2254.375,-300.830078 L2237,-265.875 L2215.5,-237.810547 L2190.25,-217.140625 L2161.625,-204.369141 L2130,-200 L2098.662109,-204.369141 L2070.171875,-217.140625 L2044.939453,-237.810547 L2023.375,-265.875 L2005.888672,-300.830078 L1992.890625,-342.171875 L1982,-442 L1992.890625,-541.25 L2005.888672,-582.414063 L2023.375,-617.25 L2044.939453,-645.242188 L2070.171875,-665.875 L2098.662109,-678.632813 L2130,-683 Z M2502,-827 L2502,78 L2585,78 L2585,-396 L2733,-396 L2733,-466 L2585,-466 L2585,-827 L2502,-827 Z" fill="#173f55" fill-rule="evenodd" stroke="#d23b3b" stroke-width="2"/><text x="0" y="150" font-family="sans-serif" font-size="64" fill="#111">러시아 · tolerance 4 · 131 vertices</text></g></g></svg>